  0
SECTION
  2
HEADER
  9
$ACADVER
  1
AC1024
  9
$ACADMAINTVER
 70
6
  9
$DWGCODEPAGE
  3
ANSI_1252
  9
$LASTSAVEDBY
  1
ezdxf
  9
$INSBASE
 10
0.0
 20
0.0
 30
0.0
  9
$EXTMIN
 10
1e+20
 20
1e+20
 30
1e+20
  9
$EXTMAX
 10
-1e+20
 20
-1e+20
 30
-1e+20
  9
$LIMMIN
 10
0.0
 20
0.0
  9
$LIMMAX
 10
420.0
 20
297.0
  9
$ORTHOMODE
 70
0
  9
$REGENMODE
 70
1
  9
$FILLMODE
 70
1
  9
$QTEXTMODE
 70
0
  9
$MIRRTEXT
 70
1
  9
$LTSCALE
 40
1.0
  9
$ATTMODE
 70
1
  9
$TEXTSIZE
 40
2.5
  9
$TRACEWID
 40
1.0
  9
$TEXTSTYLE
  7
Standard
  9
$CLAYER
  8
0
  9
$CELTYPE
  6
ByLayer
  9
$CECOLOR
 62
256
  9
$CELTSCALE
 40
1.0
  9
$DISPSILH
 70
0
  9
$DIMSCALE
 40
1.0
  9
$DIMASZ
 40
2.5
  9
$DIMEXO
 40
0.625
  9
$DIMDLI
 40
3.75
  9
$DIMRND
 40
0.0
  9
$DIMDLE
 40
0.0
  9
$DIMEXE
 40
1.25
  9
$DIMTP
 40
0.0
  9
$DIMTM
 40
0.0
  9
$DIMTXT
 40
2.5
  9
$DIMCEN
 40
2.5
  9
$DIMTSZ
 40
0.0
  9
$DIMTOL
 70
0
  9
$DIMLIM
 70
0
  9
$DIMTIH
 70
0
  9
$DIMTOH
 70
0
  9
$DIMSE1
 70
0
  9
$DIMSE2
 70
0
  9
$DIMTAD
 70
1
  9
$DIMZIN
 70
8
  9
$DIMBLK
  1

  9
$DIMASO
 70
1
  9
$DIMSHO
 70
1
  9
$DIMPOST
  1

  9
$DIMAPOST
  1

  9
$DIMALT
 70
0
  9
$DIMALTD
 70
3
  9
$DIMALTF
 40
0.03937007874
  9
$DIMLFAC
 40
1.0
  9
$DIMTOFL
 70
1
  9
$DIMTVP
 40
0.0
  9
$DIMTIX
 70
0
  9
$DIMSOXD
 70
0
  9
$DIMSAH
 70
0
  9
$DIMBLK1
  1

  9
$DIMBLK2
  1

  9
$DIMSTYLE
  2
ISO-25
  9
$DIMCLRD
 70
0
  9
$DIMCLRE
 70
0
  9
$DIMCLRT
 70
0
  9
$DIMTFAC
 40
1.0
  9
$DIMGAP
 40
0.625
  9
$DIMJUST
 70
0
  9
$DIMSD1
 70
0
  9
$DIMSD2
 70
0
  9
$DIMTOLJ
 70
0
  9
$DIMTZIN
 70
8
  9
$DIMALTZ
 70
0
  9
$DIMALTTZ
 70
0
  9
$DIMUPT
 70
0
  9
$DIMDEC
 70
2
  9
$DIMTDEC
 70
2
  9
$DIMALTU
 70
2
  9
$DIMALTTD
 70
3
  9
$DIMTXSTY
  7
Standard
  9
$DIMAUNIT
 70
0
  9
$DIMADEC
 70
0
  9
$DIMALTRND
 40
0.0
  9
$DIMAZIN
 70
0
  9
$DIMDSEP
 70
44
  9
$DIMATFIT
 70
3
  9
$DIMFRAC
 70
0
  9
$DIMLDRBLK
  1

  9
$DIMLUNIT
 70
2
  9
$DIMLWD
 70
-2
  9
$DIMLWE
 70
-2
  9
$DIMTMOVE
 70
0
  9
$DIMFXL
 40
1.0
  9
$DIMFXLON
 70
0
  9
$DIMJOGANG
 40
0.785398163397
  9
$DIMTFILL
 70
0
  9
$DIMTFILLCLR
 70
0
  9
$DIMARCSYM
 70
0
  9
$DIMLTYPE
  6

  9
$DIMLTEX1
  6

  9
$DIMLTEX2
  6

  9
$DIMTXTDIRECTION
 70
0
  9
$LUNITS
 70
2
  9
$LUPREC
 70
4
  9
$SKETCHINC
 40
1.0
  9
$FILLETRAD
 40
10.0
  9
$AUNITS
 70
0
  9
$AUPREC
 70
2
  9
$MENU
  1
.
  9
$ELEVATION
 40
0.0
  9
$PELEVATION
 40
0.0
  9
$THICKNESS
 40
0.0
  9
$LIMCHECK
 70
0
  9
$CHAMFERA
 40
0.0
  9
$CHAMFERB
 40
0.0
  9
$CHAMFERC
 40
0.0
  9
$CHAMFERD
 40
0.0
  9
$SKPOLY
 70
0
  9
$TDCREATE
 40
2461033.8510648147
  9
$TDUCREATE
 40
2458532.153996898
  9
$TDUPDATE
 40
2461033.8510648147
  9
$TDUUPDATE
 40
2458532.1544311
  9
$TDINDWG
 40
0.0
  9
$TDUSRTIMER
 40
0.0
  9
$USRTIMER
 70
1
  9
$ANGBASE
 50
0.0
  9
$ANGDIR
 70
0
  9
$PDMODE
 70
0
  9
$PDSIZE
 40
0.0
  9
$PLINEWID
 40
0.0
  9
$SPLFRAME
 70
0
  9
$SPLINETYPE
 70
6
  9
$SPLINESEGS
 70
8
  9
$HANDSEED
  5
33
  9
$SURFTAB1
 70
6
  9
$SURFTAB2
 70
6
  9
$SURFTYPE
 70
6
  9
$SURFU
 70
6
  9
$SURFV
 70
6
  9
$UCSBASE
  2

  9
$UCSNAME
  2

  9
$UCSORG
 10
0.0
 20
0.0
 30
0.0
  9
$UCSXDIR
 10
1.0
 20
0.0
 30
0.0
  9
$UCSYDIR
 10
0.0
 20
1.0
 30
0.0
  9
$UCSORTHOREF
  2

  9
$UCSORTHOVIEW
 70
0
  9
$UCSORGTOP
 10
0.0
 20
0.0
 30
0.0
  9
$UCSORGBOTTOM
 10
0.0
 20
0.0
 30
0.0
  9
$UCSORGLEFT
 10
0.0
 20
0.0
 30
0.0
  9
$UCSORGRIGHT
 10
0.0
 20
0.0
 30
0.0
  9
$UCSORGFRONT
 10
0.0
 20
0.0
 30
0.0
  9
$UCSORGBACK
 10
0.0
 20
0.0
 30
0.0
  9
$PUCSBASE
  2

  9
$PUCSNAME
  2

  9
$PUCSORG
 10
0.0
 20
0.0
 30
0.0
  9
$PUCSXDIR
 10
1.0
 20
0.0
 30
0.0
  9
$PUCSYDIR
 10
0.0
 20
1.0
 30
0.0
  9
$PUCSORTHOREF
  2

  9
$PUCSORTHOVIEW
 70
0
  9
$PUCSORGTOP
 10
0.0
 20
0.0
 30
0.0
  9
$PUCSORGBOTTOM
 10
0.0
 20
0.0
 30
0.0
  9
$PUCSORGLEFT
 10
0.0
 20
0.0
 30
0.0
  9
$PUCSORGRIGHT
 10
0.0
 20
0.0
 30
0.0
  9
$PUCSORGFRONT
 10
0.0
 20
0.0
 30
0.0
  9
$PUCSORGBACK
 10
0.0
 20
0.0
 30
0.0
  9
$USERI1
 70
0
  9
$USERI2
 70
0
  9
$USERI3
 70
0
  9
$USERI4
 70
0
  9
$USERI5
 70
0
  9
$USERR1
 40
0.0
  9
$USERR2
 40
0.0
  9
$USERR3
 40
0.0
  9
$USERR4
 40
0.0
  9
$USERR5
 40
0.0
  9
$WORLDVIEW
 70
1
  9
$SHADEDGE
 70
3
  9
$SHADEDIF
 70
70
  9
$TILEMODE
 70
1
  9
$MAXACTVP
 70
64
  9
$PINSBASE
 10
0.0
 20
0.0
 30
0.0
  9
$PLIMCHECK
 70
0
  9
$PEXTMIN
 10
1e+20
 20
1e+20
 30
1e+20
  9
$PEXTMAX
 10
-1e+20
 20
-1e+20
 30
-1e+20
  9
$PLIMMIN
 10
0.0
 20
0.0
  9
$PLIMMAX
 10
420.0
 20
297.0
  9
$UNITMODE
 70
0
  9
$VISRETAIN
 70
1
  9
$PLINEGEN
 70
0
  9
$PSLTSCALE
 70
1
  9
$TREEDEPTH
 70
3020
  9
$CMLSTYLE
  2
Standard
  9
$CMLJUST
 70
0
  9
$CMLSCALE
 40
20.0
  9
$PROXYGRAPHICS
 70
1
  9
$MEASUREMENT
 70
1
  9
$CELWEIGHT
370
-1
  9
$ENDCAPS
280
0
  9
$JOINSTYLE
280
0
  9
$LWDISPLAY
290
0
  9
$INSUNITS
 70
6
  9
$HYPERLINKBASE
  1

  9
$STYLESHEET
  1

  9
$XEDIT
290
1
  9
$CEPSNTYPE
380
0
  9
$PSTYLEMODE
290
1
  9
$FINGERPRINTGUID
  2
{D86216F2-E848-45F0-98E9-F2F18F340BFE}
  9
$VERSIONGUID
  2
{A4E15999-D72F-4CD3-ADEE-037C6CA6966D}
  9
$EXTNAMES
290
1
  9
$PSVPSCALE
 40
0.0
  9
$OLESTARTUP
290
0
  9
$SORTENTS
280
127
  9
$INDEXCTL
280
0
  9
$HIDETEXT
280
1
  9
$XCLIPFRAME
280
1
  9
$HALOGAP
280
0
  9
$OBSCOLOR
 70
257
  9
$OBSLTYPE
280
0
  9
$INTERSECTIONDISPLAY
280
0
  9
$INTERSECTIONCOLOR
 70
257
  9
$DIMASSOC
280
2
  9
$PROJECTNAME
  1

  9
$CAMERADISPLAY
290
0
  9
$LENSLENGTH
 40
50.0
  9
$CAMERAHEIGHT
 40
0.0
  9
$STEPSPERSEC
 40
24.0
  9
$STEPSIZE
 40
100.0
  9
$3DDWFPREC
 40
2.0
  9
$PSOLWIDTH
 40
0.005
  9
$PSOLHEIGHT
 40
0.08
  9
$LOFTANG1
 40
1.570796326795
  9
$LOFTANG2
 40
1.570796326795
  9
$LOFTMAG1
 40
0.0
  9
$LOFTMAG2
 40
0.0
  9
$LOFTPARAM
 70
7
  9
$LOFTNORMALS
280
1
  9
$LATITUDE
 40
37.795
  9
$LONGITUDE
 40
-122.394
  9
$NORTHDIRECTION
 40
0.0
  9
$TIMEZONE
 70
-8000
  9
$LIGHTGLYPHDISPLAY
280
1
  9
$TILEMODELIGHTSYNCH
280
1
  9
$CMATERIAL
347
20
  9
$SOLIDHIST
280
0
  9
$SHOWHIST
280
1
  9
$DWFFRAME
280
2
  9
$DGNFRAME
280
2
  9
$REALWORLDSCALE
290
1
  9
$INTERFERECOLOR
 62
256
  9
$CSHADOW
280
0
  9
$SHADOWPLANELOCATION
 40
0.0
  0
ENDSEC
  0
SECTION
  2
CLASSES
  0
CLASS
  1
ACDBDICTIONARYWDFLT
  2
AcDbDictionaryWithDefault
  3
ObjectDBX Classes
 90
0
 91
0
280
0
281
0
  0
CLASS
  1
SUN
  2
AcDbSun
  3
SCENEOE
 90
1153
 91
0
280
0
281
0
  0
CLASS
  1
VISUALSTYLE
  2
AcDbVisualStyle
  3
ObjectDBX Classes
 90
4095
 91
0
280
0
281
0
  0
CLASS
  1
MATERIAL
  2
AcDbMaterial
  3
ObjectDBX Classes
 90
1153
 91
0
280
0
281
0
  0
CLASS
  1
SCALE
  2
AcDbScale
  3
ObjectDBX Classes
 90
1153
 91
0
280
0
281
0
  0
CLASS
  1
TABLESTYLE
  2
AcDbTableStyle
  3
ObjectDBX Classes
 90
4095
 91
0
280
0
281
0
  0
CLASS
  1
MLEADERSTYLE
  2
AcDbMLeaderStyle
  3
ACDB_MLEADERSTYLE_CLASS
 90
4095
 91
0
280
0
281
0
  0
CLASS
  1
DICTIONARYVAR
  2
AcDbDictionaryVar
  3
ObjectDBX Classes
 90
0
 91
0
280
0
281
0
  0
CLASS
  1
CELLSTYLEMAP
  2
AcDbCellStyleMap
  3
ObjectDBX Classes
 90
1152
 91
0
280
0
281
0
  0
CLASS
  1
MENTALRAYRENDERSETTINGS
  2
AcDbMentalRayRenderSettings
  3
SCENEOE
 90
1024
 91
0
280
0
281
0
  0
CLASS
  1
ACDBDETAILVIEWSTYLE
  2
AcDbDetailViewStyle
  3
ObjectDBX Classes
 90
1025
 91
0
280
0
281
0
  0
CLASS
  1
ACDBSECTIONVIEWSTYLE
  2
AcDbSectionViewStyle
  3
ObjectDBX Classes
 90
1025
 91
0
280
0
281
0
  0
CLASS
  1
RASTERVARIABLES
  2
AcDbRasterVariables
  3
ISM
 90
0
 91
0
280
0
281
0
  0
CLASS
  1
ACDBPLACEHOLDER
  2
AcDbPlaceHolder
  3
ObjectDBX Classes
 90
0
 91
0
280
0
281
0
  0
CLASS
  1
LAYOUT
  2
AcDbLayout
  3
ObjectDBX Classes
 90
0
 91
0
280
0
281
0
  0
ENDSEC
  0
SECTION
  2
TABLES
  0
TABLE
  2
VPORT
  5
8
330
0
100
AcDbSymbolTable
 70
1
  0
VPORT
  5
23
330
8
100
AcDbSymbolTableRecord
100
AcDbViewportTableRecord
  2
*Active
 70
0
 10
0.0
 20
0.0
 11
1.0
 21
1.0
 12
0.0
 22
0.0
 13
0.0
 23
0.0
 14
0.5
 24
0.5
 15
0.5
 25
0.5
 16
0.0
 26
0.0
 36
1.0
 17
0.0
 27
0.0
 37
0.0
 40
1000.0
 41
1.34
 42
50.0
 43
0.0
 44
0.0
 50
0.0
 51
0.0
 71
0
 72
1000
 73
1
 74
3
 75
0
 76
0
 77
0
 78
0
281
0
 65
0
146
0.0
  0
ENDTAB
  0
TABLE
  2
LTYPE
  5
2
330
0
100
AcDbSymbolTable
 70
3
  0
LTYPE
  5
24
330
2
100
AcDbSymbolTableRecord
100
AcDbLinetypeTableRecord
  2
ByBlock
 70
0
  3

 72
65
 73
0
 40
0.0
  0
LTYPE
  5
25
330
2
100
AcDbSymbolTableRecord
100
AcDbLinetypeTableRecord
  2
ByLayer
 70
0
  3

 72
65
 73
0
 40
0.0
  0
LTYPE
  5
26
330
2
100
AcDbSymbolTableRecord
100
AcDbLinetypeTableRecord
  2
Continuous
 70
0
  3

 72
65
 73
0
 40
0.0
  0
ENDTAB
  0
TABLE
  2
LAYER
  5
1
330
0
100
AcDbSymbolTable
 70
2
  0
LAYER
  5
27
330
1
100
AcDbSymbolTableRecord
100
AcDbLayerTableRecord
  2
0
 70
0
 62
7
  6
Continuous
370
-3
390
13
347
21
  0
LAYER
  5
28
330
1
100
AcDbSymbolTableRecord
100
AcDbLayerTableRecord
  2
Defpoints
 70
0
 62
7
  6
Continuous
290
0
370
-3
390
13
347
21
  0
ENDTAB
  0
TABLE
  2
STYLE
  5
5
330
0
100
AcDbSymbolTable
 70
1
  0
STYLE
  5
29
330
5
100
AcDbSymbolTableRecord
100
AcDbTextStyleTableRecord
  2
Standard
 70
0
 40
0.0
 41
1.0
 50
0.0
 71
0
 42
2.5
  3
txt
  4

  0
ENDTAB
  0
TABLE
  2
VIEW
  5
7
330
0
100
AcDbSymbolTable
 70
0
  0
ENDTAB
  0
TABLE
  2
UCS
  5
6
330
0
100
AcDbSymbolTable
 70
0
  0
ENDTAB
  0
TABLE
  2
APPID
  5
3
330
0
100
AcDbSymbolTable
 70
3
  0
APPID
  5
2A
330
3
100
AcDbSymbolTableRecord
100
AcDbRegAppTableRecord
  2
ACAD
 70
0
  0
APPID
  5
30
330
3
100
AcDbSymbolTableRecord
100
AcDbRegAppTableRecord
  2
HATCHBACKGROUNDCOLOR
 70
0
  0
APPID
  5
31
330
3
100
AcDbSymbolTableRecord
100
AcDbRegAppTableRecord
  2
EZDXF
 70
0
  0
ENDTAB
  0
TABLE
  2
DIMSTYLE
  5
4
330
0
100
AcDbSymbolTable
 70
1
100
AcDbDimStyleTable
  0
DIMSTYLE
105
2B
330
4
100
AcDbSymbolTableRecord
100
AcDbDimStyleTableRecord
  2
Standard
 70
0
 40
1.0
 41
2.5
 42
0.625
 43
3.75
 44
1.25
 45
0.0
 46
0.0
 47
0.0
 48
0.0
 49
2.5
140
2.5
141
2.5
142
0.0
143
0.03937007874
144
1.0
145
0.0
146
1.0
147
0.625
148
0.0
 69
0
 70
0
 71
0
 72
0
 73
0
 74
0
 75
0
 76
0
 77
1
 78
8
 79
3
170
0
171
3
172
1
173
0
174
0
175
0
176
0
177
0
178
0
179
2
271
2
272
2
273
2
274
3
275
0
276
0
277
2
278
44
279
0
280
0
281
0
282
0
283
0
284
8
285
0
286
0
288
0
289
3
290
0
371
-2
372
-2
  0
ENDTAB
  0
TABLE
  2
BLOCK_RECORD
  5
9
330
0
100
AcDbSymbolTable
 70
2
  0
BLOCK_RECORD
  5
17
330
9
100
AcDbSymbolTableRecord
100
AcDbBlockTableRecord
  2
*Model_Space
340
1A
 70
0
280
1
281
0
  0
BLOCK_RECORD
  5
1B
330
9
100
AcDbSymbolTableRecord
100
AcDbBlockTableRecord
  2
*Paper_Space
340
1E
 70
0
280
1
281
0
  0
ENDTAB
  0
ENDSEC
  0
SECTION
  2
BLOCKS
  0
BLOCK
  5
18
330
17
100
AcDbEntity
  8
0
100
AcDbBlockBegin
  2
*Model_Space
 70
0
 10
0.0
 20
0.0
 30
0.0
  3
*Model_Space
  1

  0
ENDBLK
  5
19
330
17
100
AcDbEntity
  8
0
100
AcDbBlockEnd
  0
BLOCK
  5
1C
330
1B
100
AcDbEntity
  8
0
100
AcDbBlockBegin
  2
*Paper_Space
 70
0
 10
0.0
 20
0.0
 30
0.0
  3
*Paper_Space
  1

  0
ENDBLK
  5
1D
330
1B
100
AcDbEntity
  8
0
100
AcDbBlockEnd
  0
ENDSEC
  0
SECTION
  2
ENTITIES
  0
SPLINE
  5
2F
330
17
100
AcDbEntity
  8
ARCH_PROFILE
 62
3
100
AcDbSpline
 70
0
 71
3
 72
0
 73
0
 74
466
 11
-91.3186186330156
 21
98.42965841023151
 31
0.0
 11
-91.15672774747247
 21
98.42965841023151
 31
0.0
 11
-90.99483686192933
 21
98.59154929577466
 31
0.0
 11
-90.83294597638618
 21
98.59154929577466
 31
0.0
 11
-90.67105509084304
 21
98.7534401813178
 31
0.0
 11
-90.5091642052999
 21
98.7534401813178
 31
0.0
 11
-90.34727331975675
 21
98.91533106686094
 31
0.0
 11
-90.18538243421361
 21
98.91533106686094
 31
0.0
 11
-90.02349154867046
 21
99.07722195240409
 31
0.0
 11
-89.86160066312732
 21
99.07722195240409
 31
0.0
 11
-89.69970977758418
 21
99.23911283794723
 31
0.0
 11
-89.53781889204103
 21
99.23911283794723
 31
0.0
 11
-89.37592800649789
 21
99.40100372349038
 31
0.0
 11
-89.21403712095474
 21
99.40100372349038
 31
0.0
 11
-89.0521462354116
 21
99.56289460903352
 31
0.0
 11
-88.89025534986845
 21
99.56289460903352
 31
0.0
 11
-88.72836446432531
 21
99.72478549457666
 31
0.0
 11
-88.56647357878217
 21
99.72478549457666
 31
0.0
 11
-88.40458269323902
 21
99.88667638011981
 31
0.0
 11
-88.08080092215273
 21
99.88667638011981
 31
0.0
 11
-87.91891003660959
 21
100.04856726566295
 31
0.0
 11
-87.5951282655233
 21
100.04856726566295
 31
0.0
 11
-87.43323737998016
 21
100.2104581512061
 31
0.0
 11
-87.27134649443701
 21
100.2104581512061
 31
0.0
 11
-87.10945560889387
 21
100.37234903674924
 31
0.0
 11
-86.78567383780758
 21
100.37234903674924
 31
0.0
 11
-86.62378295226443
 21
100.53423992229239
 31
0.0
 11
-86.30000118117815
 21
100.53423992229239
 31
0.0
 11
-86.138110295635
 21
100.69613080783553
 31
0.0
 11
-85.65243763900557
 21
100.69613080783553
 31
0.0
 11
-85.49054675346243
 21
100.85802169337867
 31
0.0
 11
-85.00487409683299
 21
100.85802169337867
 31
0.0
 11
-84.84298321128985
 21
101.01991257892182
 31
0.0
 11
-84.03352878357413
 21
101.01991257892182
 31
0.0
 11
-83.87163789803098
 21
101.18180346446496
 31
0.0
 11
-83.06218347031528
 21
101.18180346446496
 31
0.0
 11
-82.90029258477213
 21
101.34369435000811
 31
0.0
 11
-82.25272904259955
 21
101.34369435000811
 31
0.0
 11
-82.09083815705641
 21
101.50558523555125
 31
0.0
 11
-81.44327461488383
 21
101.50558523555125
 31
0.0
 11
-81.28138372934069
 21
101.6674761210944
 31
0.0
 11
-80.31003841608182
 21
101.6674761210944
 31
0.0
 11
-80.14814753053868
 21
101.82936700663754
 31
0.0
 11
-78.20545690402095
 21
101.82936700663754
 31
0.0
 11
-78.0435660184778
 21
101.99125789218067
 31
0.0
 11
-77.71978424739152
 21
101.99125789218067
 31
0.0
 11
-77.55789336184837
 21
101.82936700663754
 31
0.0
 11
-74.80574830761493
 21
101.82936700663754
 31
0.0
 11
-74.64385742207179
 21
101.6674761210944
 31
0.0
 11
-73.67251210881292
 21
101.6674761210944
 31
0.0
 11
-73.51062122326978
 21
101.50558523555125
 31
0.0
 11
-72.37738502446777
 21
101.50558523555125
 31
0.0
 11
-72.21549413892463
 21
101.34369435000811
 31
0.0
 11
-71.7298214822952
 21
101.34369435000811
 31
0.0
 11
-71.56793059675205
 21
101.18180346446496
 31
0.0
 11
-70.43469439795004
 21
101.18180346446496
 31
0.0
 11
-70.2728035124069
 21
101.01991257892182
 31
0.0
 11
-69.62523997023432
 21
101.01991257892182
 31
0.0
 11
-69.46334908469117
 21
100.85802169337867
 31
0.0
 11
-68.97767642806174
 21
100.85802169337867
 31
0.0
 11
-68.8157855425186
 21
100.69613080783553
 31
0.0
 11
-67.84444022925975
 21
100.69613080783553
 31
0.0
 11
-67.6825493437166
 21
100.53423992229239
 31
0.0
 11
-67.19687668708717
 21
100.53423992229239
 31
0.0
 11
-67.03498580154402
 21
100.37234903674924
 31
0.0
 11
-66.87309491600088
 21
100.37234903674924
 31
0.0
 11
-66.71120403045774
 21
100.2104581512061
 31
0.0
 11
-66.54931314491459
 21
100.2104581512061
 31
0.0
 11
-66.38742225937145
 21
100.04856726566295
 31
0.0
 11
-65.90174960274202
 21
100.04856726566295
 31
0.0
 11
-65.73985871719887
 21
99.88667638011981
 31
0.0
 11
-65.25418606056944
 21
99.88667638011981
 31
0.0
 11
-65.0922951750263
 21
99.72478549457666
 31
0.0
 11
-64.76851340394
 21
99.72478549457666
 31
0.0
 11
-64.60662251839686
 21
99.56289460903352
 31
0.0
 11
-64.28284074731057
 21
99.56289460903352
 31
0.0
 11
-64.12094986176743
 21
99.40100372349038
 31
0.0
 11
-63.79716809068114
 21
99.40100372349038
 31
0.0
 11
-63.635277205137996
 21
99.23911283794723
 31
0.0
 11
-63.14960454850856
 21
99.23911283794723
 31
0.0
 11
-62.987713662965426
 21
99.07722195240409
 31
0.0
 11
-62.178259235249705
 21
99.07722195240409
 31
0.0
 11
-62.01636834970656
 21
98.91533106686094
 31
0.0
 11
-60.72124126536141
 21
98.91533106686094
 31
0.0
 11
-60.55935037981826
 21
99.07722195240409
 31
0.0
 11
-59.5880050665594
 21
99.07722195240409
 31
0.0
 11
-59.42611418101625
 21
99.23911283794723
 31
0.0
 11
-58.94044152438683
 21
99.23911283794723
 31
0.0
 11
-58.77855063884368
 21
99.40100372349038
 31
0.0
 11
-58.454768867757394
 21
99.40100372349038
 31
0.0
 11
-58.29287798221425
 21
99.56289460903352
 31
0.0
 11
-58.130987096671106
 21
99.56289460903352
 31
0.0
 11
-57.96909621112796
 21
99.72478549457666
 31
0.0
 11
-57.80720532558482
 21
99.72478549457666
 31
0.0
 11
-57.64531444004167
 21
99.88667638011981
 31
0.0
 11
-57.321532668955385
 21
99.88667638011981
 31
0.0
 11
-57.15964178341224
 21
100.04856726566295
 31
0.0
 11
-56.512078241239664
 21
100.04856726566295
 31
0.0
 11
-56.35018735569652
 21
100.2104581512061
 31
0.0
 11
-56.02640558461023
 21
100.2104581512061
 31
0.0
 11
-55.86451469906709
 21
100.37234903674924
 31
0.0
 11
-55.37884204243766
 21
100.37234903674924
 31
0.0
 11
-55.21695115689452
 21
100.53423992229239
 31
0.0
 11
-54.731278500265084
 21
100.53423992229239
 31
0.0
 11
-54.56938761472194
 21
100.69613080783553
 31
0.0
 11
-53.598042301463074
 21
100.69613080783553
 31
0.0
 11
-53.43615141591993
 21
100.85802169337867
 31
0.0
 11
-52.62669698820421
 21
100.85802169337867
 31
0.0
 11
-52.464806102661065
 21
101.01991257892182
 31
0.0
 11
-51.16967901831592
 21
101.01991257892182
 31
0.0
 11
-51.007788132772774
 21
101.18180346446496
 31
0.0
 11
-49.874551933970764
 21
101.18180346446496
 31
0.0
 11
-49.71266104842762
 21
101.34369435000811
 31
0.0
 11
-48.09375219299618
 21
101.34369435000811
 31
0.0
 11
-47.93186130745303
 21
101.50558523555125
 31
0.0
 11
-46.47484333756474
 21
101.50558523555125
 31
0.0
 11
-46.3129524520216
 21
101.6674761210944
 31
0.0
 11
-38.86597171703698
 21
101.6674761210944
 31
0.0
 11
-38.70408083149383
 21
101.50558523555125
 31
0.0
 11
-38.2184081748644
 21
101.50558523555125
 31
0.0
 11
-38.056517289321256
 21
101.34369435000811
 31
0.0
 11
-36.92328109051925
 21
101.34369435000811
 31
0.0
 11
-36.7613902049761
 21
101.18180346446496
 31
0.0
 11
-35.6281540061741
 21
101.18180346446496
 31
0.0
 11
-35.466263120630956
 21
101.01991257892182
 31
0.0
 11
-34.333026921828946
 21
101.01991257892182
 31
0.0
 11
-34.1711360362858
 21
100.85802169337867
 31
0.0
 11
-33.523572494113225
 21
100.85802169337867
 31
0.0
 11
-33.36168160857008
 21
100.69613080783553
 31
0.0
 11
-32.87600895194065
 21
100.69613080783553
 31
0.0
 11
-32.71411806639751
 21
100.53423992229239
 31
0.0
 11
-32.22844540976808
 21
100.53423992229239
 31
0.0
 11
-32.066554524224934
 21
100.37234903674924
 31
0.0
 11
-31.5808818675955
 21
100.37234903674924
 31
0.0
 11
-31.418990982052357
 21
100.2104581512061
 31
0.0
 11
-31.257100096509213
 21
100.2104581512061
 31
0.0
 11
-30.933318325422924
 21
99.88667638011981
 31
0.0
 11
-30.77142743987978
 21
99.88667638011981
 31
0.0
 11
-30.44764566879349
 21
99.56289460903352
 31
0.0
 11
-30.285754783250347
 21
99.56289460903352
 31
0.0
 11
-30.123863897707203
 21
99.40100372349038
 31
0.0
 11
-29.961973012164062
 21
99.40100372349038
 31
0.0
 11
-29.800082126620918
 21
99.23911283794723
 31
0.0
 11
-29.314409469991485
 21
99.23911283794723
 31
0.0
 11
-29.15251858444834
 21
99.07722195240409
 31
0.0
 11
-28.828736813362053
 21
99.07722195240409
 31
0.0
 11
-28.66684592781891
 21
98.91533106686094
 31
0.0
 11
-28.34306415673262
 21
98.91533106686094
 31
0.0
 11
-28.181173271189476
 21
98.7534401813178
 31
0.0
 11
-27.85739150010319
 21
98.7534401813178
 31
0.0
 11
-27.695500614560046
 21
98.59154929577466
 31
0.0
 11
-27.533609729016902
 21
98.59154929577466
 31
0.0
 11
-27.209827957930614
 21
98.26776752468837
 31
0.0
 11
-27.04793707238747
 21
98.26776752468837
 31
0.0
 11
-26.886046186844325
 21
98.10587663914522
 31
0.0
 11
-26.72415530130118
 21
98.10587663914522
 31
0.0
 11
-26.562264415758037
 21
97.94398575360208
 31
0.0
 11
-26.23848264467175
 21
97.94398575360208
 31
0.0
 11
-26.076591759128608
 21
97.78209486805893
 31
0.0
 11
-25.914700873585463
 21
97.78209486805893
 31
0.0
 11
-25.75280998804232
 21
97.62020398251579
 31
0.0
 11
-25.42902821695603
 21
97.62020398251579
 31
0.0
 11
-25.267137331412886
 21
97.45831309697265
 31
0.0
 11
-24.781464674783454
 21
97.45831309697265
 31
0.0
 11
-24.61957378924031
 21
97.2964222114295
 31
0.0
 11
-23.486337590438303
 21
97.2964222114295
 31
0.0
 11
-23.32444670489516
 21
97.13453132588636
 31
0.0
 11
-23.00066493380887
 21
97.13453132588636
 31
0.0
 11
-22.838774048265726
 21
96.97264044034321
 31
0.0
 11
-22.514992277179438
 21
96.97264044034321
 31
0.0
 11
-22.353101391636297
 21
96.81074955480007
 31
0.0
 11
-22.02931962055001
 21
96.81074955480007
 31
0.0
 11
-21.867428735006865
 21
96.64885866925692
 31
0.0
 11
-21.543646963920576
 21
96.64885866925692
 31
0.0
 11
-21.381756078377432
 21
96.48696778371378
 31
0.0
 11
-21.057974307291143
 21
96.48696778371378
 31
0.0
 11
-20.896083421748
 21
96.32507689817064
 31
0.0
 11
-20.57230165066171
 21
96.32507689817064
 31
0.0
 11
-20.41041076511857
 21
96.16318601262749
 31
0.0
 11
-20.08662899403228
 21
96.16318601262749
 31
0.0
 11
-19.924738108489137
 21
96.00129512708435
 31
0.0
 11
-19.439065451859705
 21
96.00129512708435
 31
0.0
 11
-19.27717456631656
 21
95.8394042415412
 31
0.0
 11
-18.629611024143987
 21
95.8394042415412
 31
0.0
 11
-18.467720138600843
 21
95.67751335599806
 31
0.0
 11
-17.820156596428266
 21
95.67751335599806
 31
0.0
 11
-17.65826571088512
 21
95.51562247045491
 31
0.0
 11
-17.334483939798833
 21
95.51562247045491
 31
0.0
 11
-17.17259305425569
 21
95.35373158491177
 31
0.0
 11
-16.68692039762626
 21
95.35373158491177
 31
0.0
 11
-16.525029512083115
 21
95.19184069936863
 31
0.0
 11
-16.039356855453683
 21
95.19184069936863
 31
0.0
 11
-15.877465969910538
 21
95.02994981382548
 31
0.0
 11
-15.55368419882425
 21
95.02994981382548
 31
0.0
 11
-15.391793313281106
 21
94.86805892828234
 31
0.0
 11
-15.229902427737963
 21
94.86805892828234
 31
0.0
 11
-15.068011542194819
 21
94.7061680427392
 31
0.0
 11
-14.74422977110853
 21
94.7061680427392
 31
0.0
 11
-14.582338885565386
 21
94.54427715719605
 31
0.0
 11
-14.096666228935955
 21
94.54427715719605
 31
0.0
 11
-13.934775343392811
 21
94.3823862716529
 31
0.0
 11
-13.125320915677092
 21
94.3823862716529
 31
0.0
 11
-12.963430030133948
 21
94.22049538610977
 31
0.0
 11
-11.83019383133194
 21
94.22049538610977
 31
0.0
 11
-11.668302945788795
 21
94.05860450056663
 31
0.0
 11
-11.02073940361622
 21
94.05860450056663
 31
0.0
 11
-10.858848518073076
 21
93.89671361502349
 31
0.0
 11
-10.373175861443645
 21
93.89671361502349
 31
0.0
 11
-10.2112849759005
 21
93.73482272948034
 31
0.0
 11
-9.887503204814212
 21
93.73482272948034
 31
0.0
 11
-9.725612319271068
 21
93.5729318439372
 31
0.0
 11
-9.401830548184781
 21
93.5729318439372
 31
0.0
 11
-9.239939662641637
 21
93.41104095839405
 31
0.0
 11
-8.754267006012205
 21
93.41104095839405
 31
0.0
 11
-8.592376120469062
 21
93.24915007285091
 31
0.0
 11
-7.944812578296486
 21
93.24915007285091
 31
0.0
 11
-7.782921692753342
 21
93.08725918730777
 31
0.0
 11
-6.811576379494478
 21
93.08725918730777
 31
0.0
 11
-6.649685493951334
 21
92.92536830176462
 31
0.0
 11
-6.164012837321902
 21
92.92536830176462
 31
0.0
 11
-6.002121951778759
 21
92.76347741622148
 31
0.0
 11
-5.516449295149327
 21
92.76347741622148
 31
0.0
 11
-5.354558409606183
 21
92.60158653067833
 31
0.0
 11
-4.868885752976751
 21
92.60158653067833
 31
0.0
 11
-4.7069948674336075
 21
92.43969564513519
 31
0.0
 11
-4.221322210804176
 21
92.43969564513519
 31
0.0
 11
-4.0594313252610315
 21
92.27780475959204
 31
0.0
 11
-3.2499768975453116
 21
92.27780475959204
 31
0.0
 11
-3.088086012002168
 21
92.1159138740489
 31
0.0
 11
-1.9548498132001604
 21
92.1159138740489
 31
0.0
 11
-1.7929589276570164
 21
91.95402298850576
 31
0.0
 11
-0.4978318433118649
 21
91.95402298850576
 31
0.0
 11
-0.33594095776872096
 21
91.79213210296261
 31
0.0
 11
0.31162258440385476
 21
91.79213210296261
 31
0.0
 11
0.47351346994699867
 21
91.63024121741947
 31
0.0
 11
1.1210770121195743
 21
91.63024121741947
 31
0.0
 11
1.2829678976627183
 21
91.46835033187632
 31
0.0
 11
2.57809498200787
 21
91.46835033187632
 31
0.0
 11
2.7399858675510136
 21
91.30645944633318
 31
0.0
 11
3.3875494097235896
 21
91.30645944633318
 31
0.0
 11
3.5494402952667334
 21
91.14456856079003
 31
0.0
 11
4.1970038374393095
 21
91.14456856079003
 31
0.0
 11
4.358894722982453
 21
90.98267767524689
 31
0.0
 11
5.006458265155029
 21
90.98267767524689
 31
0.0
 11
5.168349150698173
 21
90.82078678970375
 31
0.0
 11
5.9778035784138925
 21
90.82078678970375
 31
0.0
 11
6.139694463957036
 21
90.6588959041606
 31
0.0
 11
6.625367120586468
 21
90.6588959041606
 31
0.0
 11
6.787258006129612
 21
90.49700501861746
 31
0.0
 11
7.434821548302188
 21
90.49700501861746
 31
0.0
 11
7.596712433845331
 21
90.33511413307431
 31
0.0
 11
9.21562128927677
 21
90.33511413307431
 31
0.0
 11
9.377512174819914
 21
90.17322324753117
 31
0.0
 11
10.186966602535634
 21
90.17322324753117
 31
0.0
 11
10.348857488078778
 21
90.01133236198802
 31
0.0
 11
10.83453014470821
 21
90.01133236198802
 31
0.0
 11
10.996421030251355
 21
89.84944147644488
 31
0.0
 11
11.482093686880786
 21
89.84944147644488
 31
0.0
 11
11.64398457242393
 21
89.68755059090174
 31
0.0
 11
12.45343900013965
 21
89.68755059090174
 31
0.0
 11
12.615329885682794
 21
89.52565970535859
 31
0.0
 11
13.101002542312225
 21
89.52565970535859
 31
0.0
 11
13.262893427855369
 21
89.68755059090174
 31
0.0
 11
14.234238741114233
 21
89.68755059090174
 31
0.0
 11
14.396129626657377
 21
89.52565970535859
 31
0.0
 11
15.853147596545671
 21
89.52565970535859
 31
0.0
 11
16.015038482088816
 21
89.36376881981545
 31
0.0
 11
20.871765048383136
 21
89.36376881981545
 31
0.0
 11
21.033655933926276
 21
89.52565970535859
 31
0.0
 11
22.490673903814574
 21
89.52565970535859
 31
0.0
 11
22.65256478935772
 21
89.68755059090174
 31
0.0
 11
24.109582759246013
 21
89.68755059090174
 31
0.0
 11
24.271473644789157
 21
89.84944147644488
 31
0.0
 11
25.728491614677452
 21
89.84944147644488
 31
0.0
 11
25.890382500220596
 21
90.01133236198802
 31
0.0
 11
26.537946042393173
 21
90.01133236198802
 31
0.0
 11
26.699836927936314
 21
90.17322324753117
 31
0.0
 11
27.185509584565747
 21
90.17322324753117
 31
0.0
 11
27.34740047010889
 21
90.33511413307431
 31
0.0
 11
27.833073126738324
 21
90.33511413307431
 31
0.0
 11
27.994964012281468
 21
90.49700501861746
 31
0.0
 11
28.4806366689109
 21
90.49700501861746
 31
0.0
 11
28.64252755445404
 21
90.6588959041606
 31
0.0
 11
29.128200211083474
 21
90.6588959041606
 31
0.0
 11
29.290091096626618
 21
90.82078678970375
 31
0.0
 11
29.77576375325605
 21
90.82078678970375
 31
0.0
 11
29.937654638799195
 21
90.98267767524689
 31
0.0
 11
30.58521818097177
 21
90.98267767524689
 31
0.0
 11
30.747109066514913
 21
91.14456856079003
 31
0.0
 11
31.232781723144345
 21
91.14456856079003
 31
0.0
 11
31.39467260868749
 21
91.30645944633318
 31
0.0
 11
31.880345265316922
 21
91.30645944633318
 31
0.0
 11
32.04223615086006
 21
91.46835033187632
 31
0.0
 11
32.36601792194635
 21
91.46835033187632
 31
0.0
 11
32.527908807489496
 21
91.63024121741947
 31
0.0
 11
32.851690578575784
 21
91.63024121741947
 31
0.0
 11
33.01358146411893
 21
91.79213210296261
 31
0.0
 11
33.49925412074836
 21
91.79213210296261
 31
0.0
 11
33.661145006291505
 21
91.95402298850576
 31
0.0
 11
34.14681766292094
 21
91.95402298850576
 31
0.0
 11
34.30870854846408
 21
92.1159138740489
 31
0.0
 11
34.794381205093515
 21
92.1159138740489
 31
0.0
 11
34.95627209063666
 21
92.27780475959204
 31
0.0
 11
35.28005386172294
 21
92.27780475959204
 31
0.0
 11
35.441944747266085
 21
92.43969564513519
 31
0.0
 11
35.76572651835237
 21
92.43969564513519
 31
0.0
 11
35.92761740389552
 21
92.60158653067833
 31
0.0
 11
36.08950828943866
 21
92.60158653067833
 31
0.0
 11
36.251399174981806
 21
92.76347741622148
 31
0.0
 11
36.575180946068095
 21
92.76347741622148
 31
0.0
 11
36.73707183161124
 21
92.92536830176462
 31
0.0
 11
37.06085360269753
 21
92.92536830176462
 31
0.0
 11
37.22274448824067
 21
93.08725918730777
 31
0.0
 11
37.54652625932696
 21
93.08725918730777
 31
0.0
 11
37.708417144870104
 21
93.24915007285091
 31
0.0
 11
38.03219891595639
 21
93.24915007285091
 31
0.0
 11
38.19408980149954
 21
93.41104095839405
 31
0.0
 11
38.67976245812897
 21
93.41104095839405
 31
0.0
 11
38.841653343672114
 21
93.5729318439372
 31
0.0
 11
39.00354422921525
 21
93.5729318439372
 31
0.0
 11
39.165435114758395
 21
93.73482272948034
 31
0.0
 11
39.32732600030154
 21
93.73482272948034
 31
0.0
 11
39.489216885844684
 21
93.89671361502349
 31
0.0
 11
39.65110777138783
 21
93.89671361502349
 31
0.0
 11
39.81299865693097
 21
94.05860450056663
 31
0.0
 11
39.974889542474116
 21
94.05860450056663
 31
0.0
 11
40.13678042801726
 21
94.22049538610977
 31
0.0
 11
40.298671313560405
 21
94.22049538610977
 31
0.0
 11
40.46056219910355
 21
94.3823862716529
 31
0.0
 11
40.78434397018984
 21
94.3823862716529
 31
0.0
 11
40.94623485573298
 21
94.54427715719605
 31
0.0
 11
41.108125741276126
 21
94.54427715719605
 31
0.0
 11
41.27001662681927
 21
94.7061680427392
 31
0.0
 11
41.59379839790556
 21
94.7061680427392
 31
0.0
 11
41.7556892834487
 21
94.86805892828234
 31
0.0
 11
42.07947105453499
 21
94.86805892828234
 31
0.0
 11
42.241361940078136
 21
95.02994981382548
 31
0.0
 11
42.40325282562128
 21
95.02994981382548
 31
0.0
 11
42.565143711164424
 21
95.19184069936863
 31
0.0
 11
42.72703459670756
 21
95.19184069936863
 31
0.0
 11
43.05081636779385
 21
95.51562247045491
 31
0.0
 11
43.212707253336994
 21
95.51562247045491
 31
0.0
 11
43.37459813888014
 21
95.67751335599806
 31
0.0
 11
43.53648902442328
 21
95.67751335599806
 31
0.0
 11
43.69837990996643
 21
95.8394042415412
 31
0.0
 11
44.022161681052715
 21
95.8394042415412
 31
0.0
 11
44.18405256659586
 21
96.00129512708435
 31
0.0
 11
44.345943452139004
 21
96.00129512708435
 31
0.0
 11
44.50783433768215
 21
96.16318601262749
 31
0.0
 11
44.66972522322529
 21
96.16318601262749
 31
0.0
 11
44.831616108768436
 21
96.32507689817064
 31
0.0
 11
44.99350699431158
 21
96.32507689817064
 31
0.0
 11
45.155397879854725
 21
96.48696778371378
 31
0.0
 11
45.31728876539787
 21
96.48696778371378
 31
0.0
 11
45.47917965094101
 21
96.64885866925692
 31
0.0
 11
45.64107053648416
 21
96.64885866925692
 31
0.0
 11
45.8029614220273
 21
96.81074955480007
 31
0.0
 11
45.964852307570446
 21
96.81074955480007
 31
0.0
 11
46.12674319311359
 21
96.97264044034321
 31
0.0
 11
46.288634078656735
 21
96.97264044034321
 31
0.0
 11
46.45052496419988
 21
97.13453132588636
 31
0.0
 11
46.612415849743016
 21
97.13453132588636
 31
0.0
 11
46.77430673528616
 21
97.2964222114295
 31
0.0
 11
47.09808850637245
 21
97.2964222114295
 31
0.0
 11
47.25997939191559
 21
97.45831309697265
 31
0.0
 11
47.58376116300188
 21
97.45831309697265
 31
0.0
 11
47.745652048545026
 21
97.62020398251579
 31
0.0
 11
47.90754293408817
 21
97.62020398251579
 31
0.0
 11
48.069433819631314
 21
97.78209486805893
 31
0.0
 11
48.23132470517446
 21
97.78209486805893
 31
0.0
 11
48.3932155907176
 21
97.94398575360208
 31
0.0
 11
48.55510647626075
 21
97.94398575360208
 31
0.0
 11
48.71699736180389
 21
98.10587663914522
 31
0.0
 11
48.878888247347035
 21
98.10587663914522
 31
0.0
 11
49.04077913289018
 21
98.26776752468837
 31
0.0
 11
49.36456090397647
 21
98.26776752468837
 31
0.0
 11
49.52645178951961
 21
98.42965841023151
 31
0.0
 11
49.688342675062756
 21
98.42965841023151
 31
0.0
 11
49.8502335606059
 21
98.59154929577466
 31
0.0
 11
50.17401533169219
 21
98.59154929577466
 31
0.0
 11
50.335906217235326
 21
98.7534401813178
 31
0.0
 11
50.659687988321615
 21
98.7534401813178
 31
0.0
 11
50.82157887386476
 21
98.91533106686094
 31
0.0
 11
51.14536064495105
 21
98.91533106686094
 31
0.0
 11
51.30725153049419
 21
99.07722195240409
 31
0.0
 11
51.63103330158048
 21
99.07722195240409
 31
0.0
 11
51.792924187123624
 21
99.23911283794723
 31
0.0
 11
51.95481507266677
 21
99.23911283794723
 31
0.0
 11
52.11670595820991
 21
99.40100372349038
 31
0.0
 11
52.4404877292962
 21
99.40100372349038
 31
0.0
 11
52.602378614839346
 21
99.56289460903352
 31
0.0
 11
52.926160385925634
 21
99.56289460903352
 31
0.0
 11
53.08805127146878
 21
99.72478549457666
 31
0.0
 11
53.57372392809821
 21
99.72478549457666
 31
0.0
 11
53.735614813641355
 21
99.88667638011981
 31
0.0
 11
54.54506924135707
 21
99.88667638011981
 31
0.0
 11
54.70696012690021
 21
100.04856726566295
 31
0.0
 11
55.67830544015908
 21
100.04856726566295
 31
0.0
 11
55.84019632570222
 21
100.2104581512061
 31
0.0
 11
56.16397809678851
 21
100.2104581512061
 31
0.0
 11
56.325868982331656
 21
100.37234903674924
 31
0.0
 11
56.81154163896109
 21
100.37234903674924
 31
0.0
 11
56.97343252450423
 21
100.53423992229239
 31
0.0
 11
57.459105181133665
 21
100.53423992229239
 31
0.0
 11
57.62099606667681
 21
100.69613080783553
 31
0.0
 11
57.94477783776309
 21
100.69613080783553
 31
0.0
 11
58.106668723306235
 21
100.85802169337867
 31
0.0
 11
58.91612315102196
 21
100.85802169337867
 31
0.0
 11
59.0780140365651
 21
101.01991257892182
 31
0.0
 11
61.02070466308283
 21
101.01991257892182
 31
0.0
 11
61.182595548625976
 21
101.18180346446496
 31
0.0
 11
62.31583174742798
 21
101.18180346446496
 31
0.0
 11
62.47772263297112
 21
101.34369435000811
 31
0.0
 11
63.44906794622999
 21
101.34369435000811
 31
0.0
 11
63.61095883177313
 21
101.50558523555125
 31
0.0
 11
64.582304145032
 21
101.50558523555125
 31
0.0
 11
64.74419503057514
 21
101.6674761210944
 31
0.0
 11
66.68688565709287
 21
101.6674761210944
 31
0.0
 11
66.84877654263602
 21
101.82936700663754
 31
0.0
 11
69.7628124824126
 21
101.82936700663754
 31
0.0
 11
69.92470336795574
 21
101.99125789218067
 31
0.0
 11
72.51495753664605
 21
101.99125789218067
 31
0.0
 11
72.6768484221892
 21
101.82936700663754
 31
0.0
 11
75.10521170533634
 21
101.82936700663754
 31
0.0
 11
75.26710259087949
 21
101.6674761210944
 31
0.0
 11
76.72412056076779
 21
101.6674761210944
 31
0.0
 11
76.88601144631093
 21
101.50558523555125
 31
0.0
 11
78.50492030174237
 21
101.50558523555125
 31
0.0
 11
78.66681118728552
 21
101.34369435000811
 31
0.0
 11
79.80004738608753
 21
101.34369435000811
 31
0.0
 11
79.96193827163067
 21
101.18180346446496
 31
0.0
 11
80.77139269934639
 21
101.18180346446496
 31
0.0
 11
80.93328358488954
 21
101.01991257892182
 31
0.0
 11
81.58084712706211
 21
101.01991257892182
 31
0.0
 11
81.74273801260526
 21
100.85802169337867
 31
0.0
 11
82.06651978369155
 21
100.85802169337867
 31
0.0
 11
82.22841066923469
 21
100.69613080783553
 31
0.0
 11
82.55219244032097
 21
100.69613080783553
 31
0.0
 11
82.71408332586411
 21
100.53423992229239
 31
0.0
 11
83.0378650969504
 21
100.53423992229239
 31
0.0
 11
83.19975598249354
 21
100.37234903674924
 31
0.0
 11
83.52353775357983
 21
100.37234903674924
 31
0.0
 11
83.68542863912297
 21
100.2104581512061
 31
0.0
 11
84.17110129575241
 21
100.2104581512061
 31
0.0
 11
84.33299218129555
 21
100.04856726566295
 31
0.0
 11
84.65677395238184
 21
100.04856726566295
 31
0.0
 11
84.81866483792498
 21
99.88667638011981
 31
0.0
 11
85.14244660901127
 21
99.88667638011981
 31
0.0
 11
85.30433749455442
 21
99.72478549457666
 31
0.0
 11
85.6281192656407
 21
99.72478549457666
 31
0.0
 11
85.79001015118385
 21
99.56289460903352
 31
0.0
 11
86.11379192227014
 21
99.56289460903352
 31
0.0
 11
86.27568280781328
 21
99.40100372349038
 31
0.0
 11
86.59946457889957
 21
99.40100372349038
 31
0.0
 11
86.76135546444272
 21
99.23911283794723
 31
0.0
 11
86.92324634998586
 21
99.23911283794723
 31
0.0
 11
87.085137235529
 21
99.07722195240409
 31
0.0
 11
87.24702812107215
 21
99.07722195240409
 31
0.0
 11
87.40891900661529
 21
98.91533106686094
 31
0.0
 11
87.57080989215844
 21
98.91533106686094
 31
0.0
 11
87.73270077770158
 21
98.7534401813178
 31
0.0
 11
87.89459166324473
 21
98.7534401813178
 31
0.0
 11
88.05648254878787
 21
98.59154929577466
 31
0.0
 11
88.21837343433101
 21
98.59154929577466
 31
0.0
 11
88.38026431987416
 21
98.42965841023151
 31
0.0
 11
88.5421552054173
 21
98.42965841023151
 31
0.0
  0
ENDSEC
  0
SECTION
  2
OBJECTS
  0
DICTIONARY
  5
A
330
0
100
AcDbDictionary
281
1
  3
ACAD_COLOR
350
B
  3
ACAD_GROUP
350
C
  3
ACAD_LAYOUT
350
D
  3
ACAD_MATERIAL
350
E
  3
ACAD_MLEADERSTYLE
350
F
  3
ACAD_MLINESTYLE
350
10
  3
ACAD_PLOTSETTINGS
350
11
  3
ACAD_PLOTSTYLENAME
350
12
  3
ACAD_SCALELIST
350
14
  3
ACAD_TABLESTYLE
350
15
  3
ACAD_VISUALSTYLE
350
16
  3
EZDXF_META
350
2D
  0
DICTIONARY
  5
B
330
A
100
AcDbDictionary
281
1
  0
DICTIONARY
  5
C
330
A
100
AcDbDictionary
281
1
  0
DICTIONARY
  5
D
330
A
100
AcDbDictionary
281
1
  3
Model
350
1A
  3
Layout1
350
1E
  0
DICTIONARY
  5
E
330
A
100
AcDbDictionary
281
1
  3
ByBlock
350
1F
  3
ByLayer
350
20
  3
Global
350
21
  0
DICTIONARY
  5
F
330
A
100
AcDbDictionary
281
1
  3
Standard
350
2C
  0
DICTIONARY
  5
10
330
A
100
AcDbDictionary
281
1
  3
Standard
350
22
  0
DICTIONARY
  5
11
330
A
100
AcDbDictionary
281
1
  0
ACDBDICTIONARYWDFLT
  5
12
330
A
100
AcDbDictionary
281
1
  3
Normal
350
13
100
AcDbDictionaryWithDefault
340
13
  0
ACDBPLACEHOLDER
  5
13
330
12
  0
DICTIONARY
  5
14
330
A
100
AcDbDictionary
281
1
  0
DICTIONARY
  5
15
330
A
100
AcDbDictionary
281
1
  0
DICTIONARY
  5
16
330
A
100
AcDbDictionary
281
1
  0
LAYOUT
  5
1A
330
D
100
AcDbPlotSettings
  1

  4
A3
  6

 40
7.5
 41
20.0
 42
7.5
 43
20.0
 44
420.0
 45
297.0
 46
0.0
 47
0.0
 48
0.0
 49
0.0
140
0.0
141
0.0
142
1.0
143
1.0
 70
1024
 72
1
 73
0
 74
5
  7

 75
16
 76
0
 77
2
 78
300
147
1.0
148
0.0
149
0.0
100
AcDbLayout
  1
Model
 70
1
 71
0
 10
0.0
 20
0.0
 11
420.0
 21
297.0
 12
0.0
 22
0.0
 32
0.0
 14
1e+20
 24
1e+20
 34
1e+20
 15
-1e+20
 25
-1e+20
 35
-1e+20
146
0.0
 13
0.0
 23
0.0
 33
0.0
 16
1.0
 26
0.0
 36
0.0
 17
0.0
 27
1.0
 37
0.0
 76
1
330
17
  0
LAYOUT
  5
1E
330
D
100
AcDbPlotSettings
  1

  4
A3
  6

 40
7.5
 41
20.0
 42
7.5
 43
20.0
 44
420.0
 45
297.0
 46
0.0
 47
0.0
 48
0.0
 49
0.0
140
0.0
141
0.0
142
1.0
143
1.0
 70
0
 72
1
 73
0
 74
5
  7

 75
16
 76
0
 77
2
 78
300
147
1.0
148
0.0
149
0.0
100
AcDbLayout
  1
Layout1
 70
1
 71
1
 10
0.0
 20
0.0
 11
420.0
 21
297.0
 12
0.0
 22
0.0
 32
0.0
 14
1e+20
 24
1e+20
 34
1e+20
 15
-1e+20
 25
-1e+20
 35
-1e+20
146
0.0
 13
0.0
 23
0.0
 33
0.0
 16
1.0
 26
0.0
 36
0.0
 17
0.0
 27
1.0
 37
0.0
 76
1
330
1B
  0
MATERIAL
  5
1F
102
{ACAD_REACTORS
330
E
102
}
330
E
100
AcDbMaterial
  1
ByBlock
  2

 70
0
 40
1.0
 71
1
 41
1.0
 91
-1023410177
 42
1.0
 72
1
  3

 73
1
 74
1
 75
1
 44
0.5
 73
0
 45
1.0
 46
1.0
 77
1
  4

 78
1
 79
1
170
1
 48
1.0
171
1
  6

172
1
173
1
174
1
140
1.0
141
1.0
175
1
  7

176
1
177
1
178
1
143
1.0
179
1
  8

270
1
271
1
272
1
145
1.0
146
1.0
273
1
  9

274
1
275
1
276
1
 42
1.0
 72
1
  3

 73
1
 74
1
 75
1
 94
63
  0
MATERIAL
  5
20
102
{ACAD_REACTORS
330
E
102
}
330
E
100
AcDbMaterial
  1
ByLayer
  2

 70
0
 40
1.0
 71
1
 41
1.0
 91
-1023410177
 42
1.0
 72
1
  3

 73
1
 74
1
 75
1
 44
0.5
 73
0
 45
1.0
 46
1.0
 77
1
  4

 78
1
 79
1
170
1
 48
1.0
171
1
  6

172
1
173
1
174
1
140
1.0
141
1.0
175
1
  7

176
1
177
1
178
1
143
1.0
179
1
  8

270
1
271
1
272
1
145
1.0
146
1.0
273
1
  9

274
1
275
1
276
1
 42
1.0
 72
1
  3

 73
1
 74
1
 75
1
 94
63
  0
MATERIAL
  5
21
102
{ACAD_REACTORS
330
E
102
}
330
E
100
AcDbMaterial
  1
Global
  2

 70
0
 40
1.0
 71
1
 41
1.0
 91
-1023410177
 42
1.0
 72
1
  3

 73
1
 74
1
 75
1
 44
0.5
 73
0
 45
1.0
 46
1.0
 77
1
  4

 78
1
 79
1
170
1
 48
1.0
171
1
  6

172
1
173
1
174
1
140
1.0
141
1.0
175
1
  7

176
1
177
1
178
1
143
1.0
179
1
  8

270
1
271
1
272
1
145
1.0
146
1.0
273
1
  9

274
1
275
1
276
1
 42
1.0
 72
1
  3

 73
1
 74
1
 75
1
 94
63
  0
MLINESTYLE
  5
22
102
{ACAD_REACTORS
330
10
102
}
330
10
100
AcDbMlineStyle
  2
Standard
 70
0
  3

 62
256
 51
90.0
 52
90.0
 71
2
 49
0.5
 62
256
  6
BYLAYER
 49
-0.5
 62
256
  6
BYLAYER
  0
MLEADERSTYLE
  5
2C
102
{ACAD_REACTORS
330
F
102
}
330
F
100
AcDbMLeaderStyle
179
2
170
2
171
1
172
0
 90
2
 40
0.0
 41
0.0
173
1
 91
-1056964608
 92
-2
290
1
 42
2.0
291
1
 43
8.0
  3
Standard
 44
4.0
300

342
29
174
1
175
1
176
0
178
1
 93
-1056964608
 45
4.0
292
0
297
0
 46
4.0
 94
-1056964608
 47
1.0
 49
1.0
140
1.0
294
1
141
0.0
177
0
142
1.0
295
0
296
0
143
3.75
271
0
272
9
273
9
  0
DICTIONARY
  5
2D
330
A
100
AcDbDictionary
280
1
281
1
  3
CREATED_BY_EZDXF
350
2E
  3
WRITTEN_BY_EZDXF
350
32
  0
DICTIONARYVAR
  5
2E
330
2D
100
DictionaryVariables
280
0
  1
1.4.3 @ 2025-12-23T19:25:32.977874+00:00
  0
DICTIONARYVAR
  5
32
330
2D
100
DictionaryVariables
280
0
  1
1.4.3 @ 2025-12-23T19:25:32.982433+00:00
  0
ENDSEC
  0
EOF
